HIERARCHY
ROOT Hips
{
	OFFSET -0.001795 -0.223333 0.028219
	CHANNELS 6 Xposition Yposition Zposition Zrotation Yrotation Xrotation 
	JOINT LeftUpLeg
	{
		OFFSET 0.069520 -0.091406 -0.006815
		CHANNELS 3 Zrotation Yrotation Xrotation
		JOINT LeftLeg
		{
			OFFSET 0.034277 -0.375199 -0.004496
			CHANNELS 3 Zrotation Yrotation Xrotation
			JOINT LeftFoot
			{
				OFFSET -0.013596 -0.397961 -0.043693
				CHANNELS 3 Zrotation Yrotation Xrotation
				JOINT LeftToe
				{
					OFFSET 0.026358 -0.055791 0.119288
					CHANNELS 3 Zrotation Yrotation Xrotation
					End Site
					{
						OFFSET 0.000000 0.000000 0.000000
					}
				}
			}
		}
	}
	JOINT RightUpLeg
	{
		OFFSET -0.067670 -0.090522 -0.004320
		CHANNELS 3 Zrotation Yrotation Xrotation
		JOINT RightLeg
		{
			OFFSET -0.038290 -0.382569 -0.008850
			CHANNELS 3 Zrotation Yrotation Xrotation
			JOINT RightFoot
			{
				OFFSET 0.015774 -0.398415 -0.042312
				CHANNELS 3 Zrotation Yrotation Xrotation
				JOINT RightToe
				{
					OFFSET -0.025372 -0.048144 0.123348
					CHANNELS 3 Zrotation Yrotation Xrotation
					End Site
					{
						OFFSET 0.000000 0.000000 0.000000
					}
				}
			}
		}
	}
	JOINT Spine
	{
		OFFSET -0.002533 0.108963 -0.026696
		CHANNELS 3 Zrotation Yrotation Xrotation
		JOINT Spine1
		{
			OFFSET 0.005487 0.135180 0.001092
			CHANNELS 3 Zrotation Yrotation Xrotation
			JOINT Spine2
			{
				OFFSET 0.001457 0.052922 0.025425
				CHANNELS 3 Zrotation Yrotation Xrotation
				JOINT Neck
				{
					OFFSET -0.002778 0.213870 -0.042857
					CHANNELS 3 Zrotation Yrotation Xrotation
					JOINT Head
					{
						OFFSET 0.005152 0.064970 0.051349
						CHANNELS 3 Zrotation Yrotation Xrotation
						End Site
						{
							OFFSET 0.000000 0.000000 0.000000
						}
					}
				}
				JOINT LeftShoulder
				{
					OFFSET 0.078845 0.121749 -0.034090
					CHANNELS 3 Zrotation Yrotation Xrotation
					JOINT LeftArm
					{
						OFFSET 0.090977 0.030469 -0.008868
						CHANNELS 3 Zrotation Yrotation Xrotation
						JOINT LeftForeArm
						{
							OFFSET 0.259612 -0.012772 -0.027456
							CHANNELS 3 Zrotation Yrotation Xrotation
							JOINT LeftHand
							{
								OFFSET 0.249234 0.008986 -0.001171
								CHANNELS 3 Zrotation Yrotation Xrotation
								End Site
								{
									OFFSET 0.000000 0.000000 0.000000
								}
							}
						}
					}
				}
				JOINT RightShoulder
				{
					OFFSET -0.081759 0.118833 -0.038615
					CHANNELS 3 Zrotation Yrotation Xrotation
					JOINT RightArm
					{
						OFFSET -0.096012 0.032551 -0.009143
						CHANNELS 3 Zrotation Yrotation Xrotation
						JOINT RightForeArm
						{
							OFFSET -0.253742 -0.013329 -0.021401
							CHANNELS 3 Zrotation Yrotation Xrotation
							JOINT RightHand
							{
								OFFSET -0.255298 0.007772 -0.005559
								CHANNELS 3 Zrotation Yrotation Xrotation
								End Site
								{
									OFFSET 0.000000 0.000000 0.000000
								}
							}
						}
					}
				}
			}
		}
	}
}
MOTION
Frames: 14
Frame Time: 0.050000
-0.923551 0.896048 1.197751 175.858138 65.928625 -177.968709 13.039941 -12.960188 -35.688426 -13.342273 -7.497417 23.807896 12.398597 17.443080 22.967341 0.000000 0.000000 0.000000 4.333517 -13.490432 -32.922170 -21.583385 -10.881417 37.775001 14.369522 15.275762 4.732574 0.000000 0.000000 0.000000 -37.000076 -22.779535 67.660846 4.557224 0.575547 -29.627539 23.090719 48.417800 41.687966 11.271780 9.227360 -47.677360 0.000000 0.000000 0.000000 -21.556037 -22.552561 -30.623991 -32.658284 25.005436 -3.673800 -49.703729 -56.055917 22.532190 0.000000 0.000000 0.000000 34.851794 -8.713320 30.213215 35.319793 34.521099 -3.717506 -59.609701 58.039339 -26.199476 0.000000 0.000000 0.000000 
-0.926195 0.892690 1.182787 176.591908 68.596553 -177.213020 13.435702 -12.575874 -35.468577 -14.905038 -7.531911 24.214865 14.949215 19.645538 22.646754 0.000000 0.000000 0.000000 4.233695 -13.259110 -33.304798 -22.044853 -10.706746 39.071111 14.684085 16.428863 1.979079 0.000000 0.000000 0.000000 -38.191558 -21.846744 68.261452 5.302741 0.155394 -31.133241 24.050951 49.867241 42.974359 11.398637 9.216248 -47.793703 0.000000 0.000000 0.000000 -21.718508 -22.759021 -30.041164 -32.594996 23.695912 -3.293497 -47.976535 -56.327093 21.637796 0.000000 0.000000 0.000000 36.530771 -9.190196 30.724229 34.565977 35.137094 -4.349270 -62.781245 57.880042 -28.184650 0.000000 0.000000 0.000000 
-0.929244 0.889904 1.167270 176.438328 69.785867 -177.202447 12.673648 -12.872042 -36.180960 -15.707494 -7.891535 25.687084 16.427949 21.663974 22.468076 0.000000 0.000000 0.000000 2.970158 -13.849909 -33.245928 -21.520568 -11.160678 40.367352 14.974444 17.319393 -1.242776 0.000000 0.000000 0.000000 -37.688485 -21.718733 68.480578 5.056891 -0.012897 -32.435579 23.334513 49.645414 42.927996 11.390153 9.078413 -48.122331 0.000000 0.000000 0.000000 -21.155142 -23.134670 -28.609389 -33.942421 21.687521 -3.205192 -45.313626 -57.767209 19.892513 0.000000 0.000000 0.000000 37.722061 -9.860091 30.690550 34.996176 35.786138 -4.695930 -65.697806 59.075666 -30.074474 0.000000 0.000000 0.000000 
-0.932566 0.887007 1.152092 178.421797 71.907189 -175.067099 13.338218 -12.996626 -36.819856 -17.250303 -8.025599 26.732740 18.677059 24.347162 22.880133 0.000000 0.000000 0.000000 2.979202 -13.585924 -33.605708 -21.575015 -11.437361 42.012443 14.349587 17.751852 -4.393750 0.000000 0.000000 0.000000 -38.386286 -20.756085 68.218256 5.888325 -0.141101 -32.802560 23.843839 50.812428 43.607703 11.419721 9.176266 -47.957184 0.000000 0.000000 0.000000 -20.653671 -23.720168 -27.537812 -35.108610 21.041307 -3.405995 -45.972853 -59.121124 20.240624 0.000000 0.000000 0.000000 39.293727 -9.952195 31.740640 33.161372 36.262348 -5.509395 -68.550506 58.258423 -32.203376 0.000000 0.000000 0.000000 
-0.935438 0.883317 1.137102 -179.921820 72.429311 -172.588089 14.390959 -13.937960 -38.601146 -19.392665 -8.262599 27.541588 20.658463 27.077783 23.530308 0.000000 0.000000 0.000000 2.638021 -14.071420 -34.082824 -21.272214 -11.924879 43.267841 14.200282 18.349384 -7.814808 0.000000 0.000000 0.000000 -38.274064 -20.711288 68.368343 6.436546 -0.499196 -34.262406 24.893242 50.895830 44.716938 11.664549 8.938652 -48.932421 0.000000 0.000000 0.000000 -19.692791 -22.846665 -26.932060 -37.411923 19.539838 -3.882052 -46.613351 -59.990015 20.029697 0.000000 0.000000 0.000000 39.376121 -10.419217 31.373868 33.665216 36.519356 -5.398713 -67.313008 59.257600 -31.729615 0.000000 0.000000 0.000000 
-0.936926 0.877897 1.121798 -175.578327 74.172451 -167.705541 16.161652 -14.312766 -39.810730 -21.619053 -8.275503 28.311630 23.574531 30.522443 23.967655 0.000000 0.000000 0.000000 3.342519 -13.977590 -35.254956 -22.154600 -12.024694 45.433637 14.116635 19.896078 -9.980315 0.000000 0.000000 0.000000 -38.654836 -19.869173 67.608323 7.275274 -0.605486 -33.923633 25.169251 51.971765 44.629108 12.012980 8.654813 -49.577237 0.000000 0.000000 0.000000 -18.981296 -22.688544 -26.112564 -38.277332 19.007302 -4.222273 -47.157296 -60.512057 19.983897 0.000000 0.000000 0.000000 39.841196 -10.227134 31.888595 32.545259 36.489414 -5.693377 -65.729220 58.510022 -31.133318 0.000000 0.000000 0.000000 
-0.936258 0.872472 1.105659 -173.318442 74.884026 -165.048605 17.077922 -15.102308 -41.536174 -24.476694 -8.617914 30.111913 25.965007 34.261823 25.030245 0.000000 0.000000 0.000000 2.669844 -14.471419 -35.590708 -22.035409 -12.429865 46.843271 14.125508 20.966770 -11.790216 0.000000 0.000000 0.000000 -39.134190 -19.730769 68.357273 8.487331 -1.141192 -35.789927 27.799694 53.073311 47.619855 12.508074 8.447176 -50.702990 0.000000 0.000000 0.000000 -19.597193 -22.339819 -27.243265 -37.562571 19.389643 -4.015231 -49.386695 -60.166453 21.899011 0.000000 0.000000 0.000000 39.638381 -10.823884 31.349280 32.940413 36.363829 -5.540357 -61.603530 59.392275 -28.919833 0.000000 0.000000 0.000000 
-0.933027 0.866908 1.088469 -169.238407 76.121421 -161.067722 17.684993 -15.272990 -42.337707 -27.142772 -8.809244 32.032458 28.606054 37.888218 25.802725 0.000000 0.000000 0.000000 2.354708 -14.733091 -36.204968 -23.666855 -12.747723 50.087797 14.368876 23.434642 -12.788450 0.000000 0.000000 0.000000 -39.688611 -19.034691 67.865297 9.037314 -1.202976 -35.035738 28.615287 54.264396 47.733541 12.480731 8.448477 -50.563790 0.000000 0.000000 0.000000 -19.478122 -22.548859 -26.946533 -37.814708 19.353808 -4.129729 -51.710184 -60.734262 23.436454 0.000000 0.000000 0.000000 39.647330 -11.033427 31.175727 32.948390 35.743283 -5.738874 -58.470912 58.674561 -26.696605 0.000000 0.000000 0.000000 
-0.927187 0.863091 1.070238 -166.964133 76.572652 -159.096323 17.181306 -15.427438 -42.755444 -29.448764 -9.135487 34.148119 30.476774 40.529658 26.518076 0.000000 0.000000 0.000000 2.039100 -15.082174 -36.641755 -26.702415 -12.525716 53.250221 14.772836 25.700454 -12.732905 0.000000 0.000000 0.000000 -39.348881 -19.096574 68.190185 9.339537 -1.460337 -36.512426 30.632297 54.172171 50.170449 11.989411 8.542690 -51.075040 0.000000 0.000000 0.000000 -20.473799 -22.724608 -27.852949 -36.876540 20.076963 -3.915788 -51.378393 -60.453474 24.053086 0.000000 0.000000 0.000000 38.598554 -10.996342 30.137942 34.105037 35.486656 -5.010704 -56.451579 58.296218 -24.786296 0.000000 0.000000 0.000000 
-0.918798 0.859253 1.051462 -163.869685 76.159866 -156.967018 16.532313 -15.123959 -42.186496 -32.012375 -9.638374 36.258796 32.141530 42.221552 26.479848 0.000000 0.000000 0.000000 1.791474 -16.094879 -37.641379 -32.475082 -12.102183 59.265790 16.306244 30.252366 -10.280122 0.000000 0.000000 0.000000 -37.176929 -19.547367 66.818938 8.101808 -0.984804 -34.675518 28.324961 52.837451 47.746183 12.995538 8.839995 -48.918452 0.000000 0.000000 0.000000 -21.999051 -23.080280 -28.984893 -35.325067 21.355315 -3.379633 -50.966795 -59.866516 24.619723 0.000000 0.000000 0.000000 38.539988 -11.347177 29.699369 34.686093 34.213626 -5.409650 -52.598857 58.382220 -22.305891 0.000000 0.000000 0.000000 
-0.907982 0.856608 1.032861 -162.814095 75.545684 -156.706785 14.993222 -14.866854 -41.495413 -33.796861 -10.186068 38.585640 33.104969 43.355007 26.305482 0.000000 0.000000 0.000000 2.347335 -18.561169 -40.935769 -40.851091 -9.472689 67.466595 17.922394 34.639951 -5.722496 0.000000 0.000000 0.000000 -35.228807 -20.174908 66.396669 7.969679 -0.762483 -34.555895 25.776321 52.239399 46.892467 14.003135 8.646263 -48.526140 0.000000 0.000000 0.000000 -22.339998 -23.500825 -28.952986 -33.559638 20.734364 -2.709049 -49.213533 -59.830879 24.074378 0.000000 0.000000 0.000000 39.273036 -10.655010 31.119706 33.903328 33.858128 -6.074210 -51.861269 56.608274 -21.819176 0.000000 0.000000 0.000000 
-0.895534 0.855561 1.015520 -160.510165 75.675581 -155.292261 13.599848 -14.107131 -40.145799 -35.240961 -10.538710 40.416688 34.136345 44.033789 26.590206 0.000000 0.000000 0.000000 3.806529 -21.491103 -45.739926 -50.583161 -3.192735 75.445311 21.843871 38.670504 3.451864 0.000000 0.000000 0.000000 -34.454907 -20.467601 66.399094 7.199700 -0.629362 -34.515157 26.791226 51.590169 47.243851 13.465828 8.986624 -47.386362 0.000000 0.000000 0.000000 -23.629074 -25.303194 -29.265765 -31.890450 21.265569 -1.941313 -44.039598 -57.690144 20.601360 0.000000 0.000000 0.000000 38.573371 -12.088048 28.689551 34.677306 32.823318 -5.830332 -45.286687 58.765231 -18.168958 0.000000 0.000000 0.000000 
-0.881409 0.856656 1.000406 -160.122429 75.339226 -156.056934 11.119247 -13.456806 -38.721146 -35.616565 -11.121628 43.358648 34.120420 43.681972 27.544442 0.000000 0.000000 0.000000 5.907853 -23.802740 -50.177137 -57.548489 3.388759 79.469628 23.948720 38.122627 10.513878 0.000000 0.000000 0.000000 -35.196035 -21.116716 68.467548 7.178320 -0.792963 -35.639367 27.916993 52.066276 48.400131 15.679116 8.661822 -46.405777 0.000000 0.000000 0.000000 -23.913886 -25.113825 -28.887578 -30.756681 21.023748 -1.786478 -42.801545 -56.901876 19.895663 0.000000 0.000000 0.000000 39.452913 -12.835272 28.144249 34.382370 32.175321 -6.412392 -42.035932 60.426422 -16.864832 0.000000 0.000000 0.000000 
-0.865873 0.860511 0.987862 -156.934500 75.187939 -153.612383 9.507432 -12.332644 -36.733745 -34.231518 -11.566708 44.844388 33.470566 42.253005 27.031439 0.000000 0.000000 0.000000 9.605552 -23.867729 -54.043891 -56.779175 5.033377 81.335633 21.364317 31.944576 13.379657 0.000000 0.000000 0.000000 -34.694548 -21.828606 69.730822 6.225172 -0.516615 -35.340219 26.847671 51.902926 46.936769 15.788855 8.495909 -45.845961 0.000000 0.000000 0.000000 -25.152012 -24.812911 -29.018453 -28.557814 21.008614 -1.290960 -41.076770 -56.139287 19.447339 0.000000 0.000000 0.000000 39.259048 -13.349748 26.488052 35.557977 30.148109 -6.637454 -38.084468 63.437273 -14.785287 0.000000 0.000000 0.000000 
